<svg xmlns="http://www.w3.org/2000/svg" viewBox="0 0 16 12"><defs><style>.a{fill:#71c7ef;}.a,.b{fill-rule:evenodd;}.b{fill:#9b7cb7;}</style></defs><g transform="translate(-1063 -606)"><path class="a" d="M522.073,138.418a4.053,4.053,0,0,0,2.011,2.872,7.775,7.775,0,0,1-4.092-1.154,5.664,5.664,0,0,0-.68-8.025,6.955,6.955,0,0,0-1.8-1.129,5.514,5.514,0,0,1,.656-.025,5.261,5.261,0,0,1,3.627,1.314,4.256,4.256,0,0,1,1.519,3.221,4.182,4.182,0,0,1-1.24,2.925" transform="translate(554.916 475.044)"/><path class="b" d="M476.659,141.079a4.41,4.41,0,0,1-2.269,3.168,8.785,8.785,0,0,0,5.076-1.583,7.38,7.38,0,0,0,1.567.188,6.071,6.071,0,0,0,4.07-1.5,4.712,4.712,0,0,0,1.683-3.6,4.8,4.8,0,0,0-1.683-3.6,6.354,6.354,0,0,0-8.141,0,4.8,4.8,0,0,0-1.683,3.6,4.717,4.717,0,0,0,1.379,3.326m1.5-1.074a3.151,3.151,0,0,1-1.543,2.2,5.923,5.923,0,0,0,3.463-1.1,4.747,4.747,0,0,0,1.076.108,4.124,4.124,0,0,0,2.783-1.021,3.163,3.163,0,0,0,0-4.912,4.3,4.3,0,0,0-5.566,0,3.167,3.167,0,0,0-.212,4.726" transform="translate(588.61 473.753)"/></g></svg>