<svg width="105" height="67" viewBox="0 0 105 67" fill="none" xmlns="http://www.w3.org/2000/svg">
<path fill-rule="evenodd" clip-rule="evenodd" d="M91.133 41.2747C91.133 45.9825 96.5794 53.2095 104.15 57.0362C94.92 57.0849 85.8216 54.9097 77.666 50.7047C83.1637 45.3362 86.3078 38.1027 86.4372 30.5252C86.3038 25.8253 85.0433 21.2207 82.7564 17.0789C80.4695 12.9371 77.2195 9.37262 73.2656 6.66982C69.7046 4.0721 65.7784 1.98583 61.6074 0.474925C63.0192 0.357828 64.4363 0.312253 65.8529 0.338414C74.2916 0.0785859 82.5696 2.62239 89.3242 7.55103C92.2722 9.54199 94.6987 12.1785 96.4085 15.2483C98.1183 18.3182 99.0637 21.7357 99.1685 25.2258C99.0823 28.3018 98.3219 31.3243 96.9383 34.0912C95.5547 36.8581 93.5796 39.3056 91.1454 41.2699" fill="#0A0A0A"/>
<path fill-rule="evenodd" clip-rule="evenodd" d="M15.2848 48.7918C15.2848 53.9546 9.22816 62.0485 0.599609 66.1768C12.1639 66.2823 23.5332 63.2766 33.4526 57.4915C36.7935 58.1433 40.1898 58.4889 43.5971 58.5236C53.0707 58.6857 62.332 55.7861 69.9307 50.2789C73.2185 48.0584 75.9196 45.1124 77.8132 41.6818C79.7068 38.2511 80.7392 34.4331 80.8259 30.5399C80.7018 26.6541 79.6533 22.8493 77.7628 19.4243C75.8724 15.9994 73.1915 13.0476 69.9307 10.8009C62.2129 5.53321 53.0146 2.70703 43.5873 2.70703C34.16 2.70703 24.9616 5.53321 17.2439 10.8009C13.9805 13.0451 11.2976 15.9963 9.40687 19.4218C7.51611 22.8473 6.46921 26.6534 6.34869 30.5399C6.40503 34.027 7.23127 37.4615 8.77139 40.6106C10.3115 43.7597 12.5295 46.5498 15.275 48.7918M24.9667 42.901C24.9667 46.4379 20.7361 52.0413 14.9772 54.9723C22.8814 55.0371 30.6458 52.9431 37.3878 48.9283C39.6818 49.3501 42.0133 49.5482 44.3477 49.5197C50.8248 49.6545 57.1629 47.6826 62.358 43.9163C64.6793 42.467 66.589 40.4733 67.9116 38.1184C69.2343 35.7635 69.9275 33.1229 69.9275 30.4393C69.9275 27.7557 69.2343 25.1151 67.9116 22.7602C66.589 20.4053 64.6793 18.4116 62.358 16.9623C57.0992 13.3183 50.8037 11.36 44.3477 11.36C37.8917 11.36 31.5963 13.3183 26.3375 16.9623C24.0681 18.4798 22.1995 20.4977 20.8839 22.8514C19.5683 25.2052 18.8431 27.8281 18.7673 30.5064C18.8341 32.8818 19.4215 35.216 20.4902 37.3527C21.5589 39.4894 23.0843 41.3794 24.9643 42.8962" fill="#8054FE"/>
</svg>
